<?xml version="1.0" encoding="utf-8"?>
<!-- Generator: Adobe Illustrator 16.0.0, SVG Export Plug-In . SVG Version: 6.00 Build 0)  -->
<!DOCTYPE svg PUBLIC "-//W3C//DTD SVG 1.1//EN" "http://www.w3.org/Graphics/SVG/1.1/DTD/svg11.dtd">
<svg version="1.1" id="Layer_1" xmlns="http://www.w3.org/2000/svg" xmlns:xlink="http://www.w3.org/1999/xlink" x="0px" y="0px"
	 width="56px" height="56px" viewBox="0 0 56 56" enable-background="new 0 0 56 56" xml:space="preserve">
<g>
	<g>
		<path fill="#F58220" d="M55.61,28c0,15.205-12.328,27.529-27.529,27.529C12.879,55.529,0.554,43.205,0.554,28
			S12.879,0.472,28.082,0.472C43.282,0.472,55.61,12.796,55.61,28z"/>
		<g>
			<path fill="#FFFFFF" d="M22.291,44.434l5.966,6.066l12.066-10.346c7.111-6.543,7.277-13.784,5.527-19.195
				c-1.9-5.88-7.729-12.839-17.775-12.839c-4.361,0-8.65,1.606-12.078,4.519c-7.565,6.429-8.626,17.421-2.37,24.5
				c2.16,2.441,4.491,4.373,6.255,5.189l10.517-8.715h-9.634l-0.062-0.072c-3.898-4.5-3.602-11.109,0.662-14.731
				c1.949-1.659,4.379-2.569,6.843-2.569c2.912,0,5.707,1.265,7.656,3.474c1.789,2.023,2.654,4.61,2.439,7.286
				c-0.215,2.679-1.059,4.964-3.359,6.91C34.878,33.967,22.291,44.434,22.291,44.434z"/>
		</g>
	</g>
</g>
</svg>
